<svg xmlns="http://www.w3.org/2000/svg" xmlns:xlink="http://www.w3.org/1999/xlink" width="741" zoomAndPan="magnify" viewBox="0 0 555.75 102.749999" height="137" preserveAspectRatio="xMidYMid meet" version="1.0"><defs><g/><clipPath id="8a22e29454"><path d="M 7 28 L 58.160156 28 L 58.160156 79.230469 L 7 79.230469 Z M 7 28 " clip-rule="nonzero"/></clipPath><clipPath id="e201332c98"><path d="M 7 53 L 33 53 L 33 79.230469 L 7 79.230469 Z M 7 53 " clip-rule="nonzero"/></clipPath><clipPath id="65de433d36"><path d="M 32 28 L 58.160156 28 L 58.160156 55 L 32 55 Z M 32 28 " clip-rule="nonzero"/></clipPath><clipPath id="688a54a630"><path d="M 0.550781 28 L 16 28 L 16 38 L 0.550781 38 Z M 0.550781 28 " clip-rule="nonzero"/></clipPath><clipPath id="7275330312"><path d="M 0.550781 25 L 9 25 L 9 28 L 0.550781 28 Z M 0.550781 25 " clip-rule="nonzero"/></clipPath><clipPath id="77e4e2eb62"><path d="M 0.550781 21.621094 L 9 21.621094 L 9 24 L 0.550781 24 Z M 0.550781 21.621094 " clip-rule="nonzero"/></clipPath></defs><g clip-path="url(#8a22e29454)"><path fill="#ff884d" d="M 32.957031 28.824219 C 32.707031 28.824219 32.496094 28.910156 32.320312 29.085938 C 32.144531 29.261719 32.054688 29.476562 32.054688 29.722656 L 32.054688 36.023438 C 32.054688 36.273438 32.144531 36.484375 32.320312 36.660156 C 32.496094 36.835938 32.707031 36.925781 32.957031 36.925781 C 33.515625 36.925781 34.074219 36.953125 34.632812 37.007812 C 35.1875 37.0625 35.742188 37.144531 36.292969 37.253906 C 36.839844 37.363281 37.382812 37.5 37.921875 37.660156 C 38.457031 37.824219 38.984375 38.011719 39.5 38.226562 C 40.019531 38.441406 40.523438 38.679688 41.015625 38.945312 C 41.511719 39.207031 41.992188 39.496094 42.457031 39.808594 C 42.921875 40.117188 43.371094 40.453125 43.804688 40.808594 C 44.238281 41.160156 44.652344 41.539062 45.050781 41.933594 C 45.445312 42.328125 45.820312 42.746094 46.175781 43.175781 C 46.53125 43.609375 46.863281 44.058594 47.175781 44.527344 C 47.488281 44.992188 47.773438 45.472656 48.039062 45.964844 C 48.304688 46.460938 48.542969 46.964844 48.757812 47.484375 C 48.96875 48 49.160156 48.527344 49.320312 49.0625 C 49.484375 49.597656 49.621094 50.140625 49.730469 50.691406 C 49.839844 51.242188 49.921875 51.792969 49.976562 52.351562 C 50.03125 52.910156 50.058594 53.46875 50.058594 54.027344 C 50.058594 54.585938 50.03125 55.144531 49.976562 55.703125 C 49.921875 56.261719 49.839844 56.816406 49.730469 57.363281 C 49.621094 57.914062 49.484375 58.457031 49.320312 58.992188 C 49.160156 59.527344 48.96875 60.054688 48.757812 60.574219 C 48.542969 61.089844 48.304688 61.597656 48.039062 62.089844 C 47.773438 62.582031 47.488281 63.0625 47.175781 63.53125 C 46.863281 63.996094 46.53125 64.445312 46.175781 64.878906 C 45.820312 65.308594 45.445312 65.726562 45.050781 66.121094 C 44.652344 66.515625 44.238281 66.894531 43.804688 67.25 C 43.371094 67.605469 42.921875 67.9375 42.457031 68.246094 C 41.992188 68.558594 41.511719 68.847656 41.015625 69.109375 C 40.523438 69.375 40.019531 69.613281 39.5 69.828125 C 38.984375 70.042969 38.457031 70.230469 37.921875 70.394531 C 37.382812 70.554688 36.839844 70.691406 36.292969 70.800781 C 35.742188 70.910156 35.1875 70.992188 34.632812 71.046875 C 34.074219 71.101562 33.515625 71.128906 32.957031 71.128906 C 32.394531 71.128906 31.835938 71.101562 31.277344 71.046875 C 30.722656 70.992188 30.167969 70.910156 29.617188 70.800781 C 29.070312 70.691406 28.527344 70.554688 27.992188 70.394531 C 27.453125 70.230469 26.929688 70.042969 26.410156 69.828125 C 25.894531 69.613281 25.386719 69.375 24.894531 69.109375 C 24.398438 68.847656 23.917969 68.558594 23.453125 68.246094 C 22.988281 67.9375 22.539062 67.605469 22.105469 67.25 C 21.671875 66.894531 21.257812 66.515625 20.863281 66.121094 C 20.464844 65.726562 20.089844 65.308594 19.734375 64.878906 C 19.378906 64.445312 19.046875 63.996094 18.734375 63.53125 C 18.421875 63.0625 18.136719 62.582031 17.871094 62.089844 C 17.609375 61.597656 17.367188 61.089844 17.152344 60.574219 C 16.941406 60.054688 16.75 59.527344 16.589844 58.992188 C 16.425781 58.457031 16.289062 57.914062 16.179688 57.363281 C 16.070312 56.816406 15.988281 56.261719 15.933594 55.703125 C 15.878906 55.144531 15.851562 54.585938 15.851562 54.027344 C 15.851562 53.777344 15.765625 53.566406 15.589844 53.390625 C 15.414062 53.214844 15.199219 53.128906 14.953125 53.128906 L 8.652344 53.128906 C 8.402344 53.128906 8.191406 53.214844 8.015625 53.390625 C 7.839844 53.566406 7.75 53.777344 7.75 54.027344 C 7.75 54.851562 7.792969 55.675781 7.871094 56.496094 C 7.953125 57.320312 8.074219 58.136719 8.234375 58.945312 C 8.394531 59.753906 8.597656 60.554688 8.835938 61.34375 C 9.074219 62.132812 9.355469 62.910156 9.667969 63.671875 C 9.984375 64.433594 10.339844 65.179688 10.726562 65.910156 C 11.117188 66.636719 11.539062 67.34375 12 68.03125 C 12.457031 68.714844 12.949219 69.378906 13.472656 70.015625 C 13.996094 70.65625 14.550781 71.265625 15.132812 71.851562 C 15.71875 72.433594 16.328125 72.988281 16.964844 73.511719 C 17.605469 74.035156 18.265625 74.527344 18.953125 74.984375 C 19.640625 75.441406 20.347656 75.867188 21.074219 76.253906 C 21.800781 76.644531 22.546875 76.996094 23.308594 77.3125 C 24.074219 77.628906 24.847656 77.90625 25.640625 78.148438 C 26.429688 78.386719 27.230469 78.585938 28.039062 78.746094 C 28.847656 78.910156 29.664062 79.03125 30.484375 79.109375 C 31.304688 79.191406 32.128906 79.230469 32.957031 79.230469 C 33.78125 79.230469 34.605469 79.191406 35.425781 79.109375 C 36.246094 79.03125 37.0625 78.910156 37.871094 78.746094 C 38.683594 78.585938 39.480469 78.386719 40.273438 78.148438 C 41.0625 77.90625 41.839844 77.628906 42.601562 77.3125 C 43.363281 76.996094 44.109375 76.644531 44.835938 76.253906 C 45.566406 75.867188 46.273438 75.441406 46.957031 74.984375 C 47.644531 74.527344 48.304688 74.035156 48.945312 73.511719 C 49.582031 72.988281 50.195312 72.433594 50.777344 71.851562 C 51.359375 71.265625 51.914062 70.65625 52.4375 70.015625 C 52.960938 69.378906 53.453125 68.714844 53.910156 68.03125 C 54.371094 67.34375 54.792969 66.636719 55.183594 65.910156 C 55.574219 65.179688 55.925781 64.433594 56.242188 63.671875 C 56.558594 62.910156 56.835938 62.132812 57.074219 61.34375 C 57.3125 60.554688 57.515625 59.753906 57.675781 58.945312 C 57.835938 58.136719 57.957031 57.320312 58.039062 56.496094 C 58.117188 55.675781 58.160156 54.851562 58.160156 54.027344 C 58.160156 53.203125 58.117188 52.378906 58.039062 51.558594 C 57.957031 50.734375 57.835938 49.921875 57.675781 49.109375 C 57.515625 48.300781 57.3125 47.5 57.074219 46.710938 C 56.835938 45.921875 56.558594 45.144531 56.242188 44.382812 C 55.925781 43.621094 55.574219 42.875 55.183594 42.144531 C 54.792969 41.417969 54.371094 40.710938 53.910156 40.023438 C 53.453125 39.339844 52.960938 38.675781 52.4375 38.039062 C 51.914062 37.398438 51.359375 36.789062 50.777344 36.207031 C 50.195312 35.621094 49.582031 35.066406 48.945312 34.542969 C 48.304688 34.019531 47.644531 33.53125 46.957031 33.070312 C 46.273438 32.613281 45.566406 32.1875 44.835938 31.800781 C 44.109375 31.410156 43.363281 31.058594 42.601562 30.742188 C 41.839844 30.425781 41.0625 30.148438 40.273438 29.910156 C 39.480469 29.667969 38.683594 29.46875 37.871094 29.308594 C 37.0625 29.144531 36.246094 29.027344 35.425781 28.945312 C 34.605469 28.863281 33.78125 28.824219 32.957031 28.824219 Z M 32.957031 28.824219 " fill-opacity="1" fill-rule="nonzero"/></g><g clip-path="url(#e201332c98)"><path fill="#7188ea" d="M 32.957031 71.128906 L 32.957031 79.230469 C 32.128906 79.230469 31.308594 79.191406 30.484375 79.109375 C 29.664062 79.027344 28.847656 78.90625 28.039062 78.742188 C 27.230469 78.582031 26.429688 78.378906 25.640625 78.140625 C 24.851562 77.898438 24.078125 77.621094 23.3125 77.304688 C 22.550781 76.988281 21.808594 76.636719 21.078125 76.246094 C 20.351562 75.859375 19.644531 75.433594 18.960938 74.976562 C 18.273438 74.515625 17.609375 74.027344 16.972656 73.503906 C 16.335938 72.980469 15.726562 72.425781 15.140625 71.839844 C 14.558594 71.257812 14.003906 70.648438 13.480469 70.007812 C 12.957031 69.371094 12.464844 68.710938 12.007812 68.023438 C 11.546875 67.335938 11.125 66.628906 10.734375 65.902344 C 10.347656 65.175781 9.992188 64.429688 9.675781 63.667969 C 9.359375 62.90625 9.082031 62.128906 8.84375 61.339844 C 8.601562 60.550781 8.402344 59.75 8.238281 58.941406 C 8.078125 58.132812 7.957031 57.316406 7.875 56.496094 C 7.792969 55.675781 7.75 54.851562 7.75 54.027344 C 7.75 53.777344 7.839844 53.566406 8.015625 53.390625 C 8.191406 53.214844 8.402344 53.128906 8.652344 53.128906 L 14.953125 53.128906 C 15.199219 53.128906 15.414062 53.214844 15.589844 53.390625 C 15.761719 53.566406 15.851562 53.777344 15.851562 54.027344 C 15.851562 54.585938 15.878906 55.144531 15.9375 55.703125 C 15.992188 56.261719 16.074219 56.8125 16.183594 57.363281 C 16.292969 57.914062 16.429688 58.453125 16.59375 58.992188 C 16.753906 59.527344 16.945312 60.054688 17.160156 60.570312 C 17.371094 61.085938 17.613281 61.59375 17.875 62.085938 C 18.140625 62.582031 18.429688 63.058594 18.738281 63.527344 C 19.050781 63.992188 19.382812 64.441406 19.738281 64.875 C 20.09375 65.304688 20.46875 65.71875 20.867188 66.117188 C 21.261719 66.511719 21.675781 66.886719 22.109375 67.242188 C 22.542969 67.597656 22.992188 67.933594 23.457031 68.242188 C 23.921875 68.554688 24.402344 68.84375 24.894531 69.105469 C 25.390625 69.371094 25.894531 69.609375 26.414062 69.824219 C 26.929688 70.039062 27.457031 70.226562 27.992188 70.390625 C 28.527344 70.554688 29.070312 70.691406 29.621094 70.800781 C 30.167969 70.910156 30.722656 70.992188 31.28125 71.046875 C 31.835938 71.101562 32.394531 71.128906 32.957031 71.128906 Z M 32.957031 71.128906 " fill-opacity="1" fill-rule="nonzero"/></g><g clip-path="url(#65de433d36)"><path fill="#f95858" d="M 58.160156 54.027344 L 50.058594 54.027344 C 50.058594 53.46875 50.03125 52.910156 49.972656 52.351562 C 49.917969 51.792969 49.835938 51.242188 49.726562 50.691406 C 49.617188 50.144531 49.480469 49.601562 49.316406 49.066406 C 49.15625 48.527344 48.964844 48.003906 48.753906 47.484375 C 48.539062 46.96875 48.296875 46.460938 48.035156 45.96875 C 47.769531 45.472656 47.480469 44.996094 47.171875 44.527344 C 46.859375 44.0625 46.527344 43.613281 46.171875 43.183594 C 45.816406 42.75 45.441406 42.335938 45.042969 41.9375 C 44.648438 41.542969 44.234375 41.167969 43.800781 40.8125 C 43.367188 40.457031 42.917969 40.121094 42.453125 39.8125 C 41.988281 39.5 41.507812 39.210938 41.015625 38.949219 C 40.519531 38.683594 40.015625 38.445312 39.496094 38.230469 C 38.980469 38.015625 38.453125 37.828125 37.917969 37.664062 C 37.382812 37.5 36.839844 37.367188 36.289062 37.253906 C 35.742188 37.144531 35.1875 37.0625 34.632812 37.007812 C 34.074219 36.953125 33.515625 36.925781 32.957031 36.925781 C 32.707031 36.921875 32.496094 36.835938 32.320312 36.660156 C 32.144531 36.484375 32.054688 36.273438 32.054688 36.023438 L 32.054688 29.722656 C 32.054688 29.476562 32.144531 29.261719 32.320312 29.085938 C 32.496094 28.910156 32.707031 28.824219 32.957031 28.824219 C 33.78125 28.824219 34.605469 28.867188 35.425781 28.945312 C 36.246094 29.027344 37.0625 29.148438 37.871094 29.3125 C 38.679688 29.472656 39.480469 29.675781 40.269531 29.914062 C 41.058594 30.15625 41.835938 30.433594 42.597656 30.75 C 43.359375 31.066406 44.101562 31.417969 44.832031 31.808594 C 45.558594 32.195312 46.265625 32.621094 46.953125 33.078125 C 47.636719 33.539062 48.300781 34.027344 48.9375 34.554688 C 49.574219 35.078125 50.1875 35.628906 50.769531 36.214844 C 51.351562 36.796875 51.90625 37.40625 52.429688 38.046875 C 52.953125 38.683594 53.445312 39.34375 53.902344 40.03125 C 54.363281 40.71875 54.785156 41.425781 55.175781 42.152344 C 55.566406 42.878906 55.917969 43.625 56.234375 44.386719 C 56.550781 45.148438 56.828125 45.925781 57.066406 46.714844 C 57.308594 47.503906 57.507812 48.304688 57.671875 49.113281 C 57.832031 49.921875 57.953125 50.738281 58.035156 51.558594 C 58.117188 52.378906 58.160156 53.203125 58.160156 54.027344 Z M 58.160156 54.027344 " fill-opacity="1" fill-rule="nonzero"/></g><path fill="#fcd163" d="M 42.5 56.015625 C 42.3125 54.453125 41.816406 53 41.007812 51.648438 C 40.203125 50.300781 39.15625 49.175781 37.867188 48.273438 C 38.960938 46.519531 41.003906 42.664062 39.65625 40.105469 C 39.542969 39.890625 39.371094 39.746094 39.144531 39.671875 C 38.914062 39.59375 38.691406 39.609375 38.472656 39.710938 C 34.859375 41.425781 33.585938 40.566406 33.578125 40.566406 C 33.464844 40.460938 33.335938 40.390625 33.1875 40.351562 C 33.042969 40.308594 32.894531 40.308594 32.746094 40.34375 C 32.597656 40.378906 32.464844 40.449219 32.351562 40.550781 C 32.238281 40.65625 32.15625 40.777344 32.105469 40.921875 L 31.941406 41.390625 L 31.347656 40.558594 C 31.226562 40.386719 31.066406 40.273438 30.867188 40.214844 C 30.667969 40.15625 30.472656 40.167969 30.277344 40.246094 C 29.84375 40.429688 29.390625 40.488281 28.921875 40.421875 C 28.453125 40.355469 28.039062 40.171875 27.671875 39.871094 C 27.457031 39.664062 27.199219 39.585938 26.90625 39.636719 C 26.609375 39.683594 26.394531 39.839844 26.253906 40.105469 C 24.910156 42.664062 26.949219 46.519531 28.042969 48.273438 C 26.753906 49.175781 25.707031 50.300781 24.902344 51.648438 C 24.09375 53 23.597656 54.453125 23.414062 56.015625 C 22.917969 59.011719 22.660156 62.363281 24.488281 64.480469 C 25.734375 65.925781 27.78125 66.628906 30.722656 66.628906 C 30.824219 66.628906 30.925781 66.628906 31.027344 66.628906 L 34.867188 66.628906 C 38 66.675781 40.132812 65.976562 41.421875 64.480469 C 43.25 62.363281 42.992188 59.011719 42.5 56.015625 Z M 42.5 56.015625 " fill-opacity="1" fill-rule="nonzero"/><path fill="#efb745" d="M 33.855469 56.789062 L 33.855469 54.988281 C 34.527344 55.105469 34.738281 55.359375 34.753906 55.472656 C 34.757812 55.71875 34.847656 55.929688 35.027344 56.101562 C 35.210938 56.273438 35.421875 56.351562 35.671875 56.34375 C 35.921875 56.339844 36.128906 56.246094 36.304688 56.066406 C 36.476562 55.890625 36.558594 55.675781 36.554688 55.425781 C 36.550781 55.210938 36.429688 53.460938 33.855469 53.171875 L 33.855469 53.128906 C 33.855469 52.878906 33.765625 52.667969 33.589844 52.492188 C 33.417969 52.316406 33.203125 52.226562 32.957031 52.226562 C 32.707031 52.226562 32.496094 52.316406 32.320312 52.492188 C 32.144531 52.667969 32.054688 52.878906 32.054688 53.128906 L 32.054688 53.191406 C 30.28125 53.46875 29.355469 54.65625 29.355469 55.828125 C 29.378906 56.175781 29.464844 56.507812 29.613281 56.820312 C 29.757812 57.136719 29.957031 57.414062 30.207031 57.660156 C 30.453125 57.902344 30.738281 58.09375 31.054688 58.230469 C 31.375 58.371094 31.707031 58.449219 32.054688 58.464844 L 32.054688 60.269531 C 31.375 60.152344 31.167969 59.894531 31.15625 59.796875 C 31.144531 59.550781 31.054688 59.34375 30.875 59.171875 C 30.699219 59 30.484375 58.914062 30.238281 58.914062 C 29.992188 58.917969 29.78125 59.007812 29.605469 59.1875 C 29.433594 59.367188 29.351562 59.582031 29.355469 59.828125 C 29.359375 60.046875 29.480469 61.773438 32.054688 62.078125 L 32.054688 62.128906 C 32.054688 62.378906 32.144531 62.589844 32.320312 62.765625 C 32.496094 62.941406 32.707031 63.027344 32.957031 63.027344 C 33.203125 63.027344 33.417969 62.941406 33.589844 62.765625 C 33.765625 62.589844 33.855469 62.378906 33.855469 62.128906 L 33.855469 62.0625 C 35.628906 61.789062 36.558594 60.597656 36.554688 59.425781 C 36.53125 59.082031 36.445312 58.75 36.296875 58.433594 C 36.152344 58.121094 35.953125 57.839844 35.703125 57.597656 C 35.457031 57.355469 35.171875 57.164062 34.855469 57.023438 C 34.535156 56.886719 34.203125 56.808594 33.855469 56.789062 Z M 31.15625 55.828125 C 31.15625 55.507812 31.464844 55.179688 32.054688 55.023438 L 32.054688 56.632812 C 31.464844 56.476562 31.15625 56.148438 31.15625 55.828125 Z M 33.855469 60.230469 L 33.855469 58.625 C 34.445312 58.78125 34.753906 59.105469 34.753906 59.429688 C 34.753906 59.75 34.449219 60.074219 33.855469 60.230469 Z M 33.855469 60.230469 " fill-opacity="1" fill-rule="nonzero"/><path fill="#efb745" d="M 39.65625 40.105469 C 39.542969 39.894531 39.371094 39.746094 39.144531 39.671875 C 38.914062 39.59375 38.691406 39.609375 38.472656 39.710938 C 34.859375 41.425781 33.585938 40.566406 33.578125 40.566406 C 33.464844 40.460938 33.335938 40.390625 33.1875 40.351562 C 33.042969 40.308594 32.894531 40.308594 32.746094 40.34375 C 32.597656 40.378906 32.464844 40.449219 32.351562 40.550781 C 32.238281 40.65625 32.15625 40.777344 32.105469 40.921875 L 31.941406 41.390625 L 31.347656 40.558594 C 31.226562 40.386719 31.066406 40.273438 30.867188 40.214844 C 30.667969 40.15625 30.472656 40.167969 30.277344 40.246094 C 29.84375 40.429688 29.390625 40.488281 28.921875 40.421875 C 28.453125 40.355469 28.039062 40.171875 27.671875 39.871094 C 27.457031 39.664062 27.199219 39.585938 26.90625 39.636719 C 26.609375 39.683594 26.394531 39.839844 26.253906 40.105469 C 24.910156 42.664062 26.949219 46.519531 28.042969 48.273438 L 37.867188 48.273438 C 38.960938 46.519531 41.003906 42.664062 39.65625 40.105469 Z M 39.65625 40.105469 " fill-opacity="1" fill-rule="nonzero"/><path fill="#efb745" d="M 36.085938 51.21875 C 35.953125 51.289062 35.808594 51.328125 35.65625 51.328125 C 35.300781 51.324219 35.035156 51.171875 34.863281 50.859375 L 33.449219 48.277344 L 35.503906 48.277344 L 36.449219 49.996094 C 36.5625 50.214844 36.585938 50.441406 36.515625 50.679688 C 36.445312 50.917969 36.304688 51.097656 36.085938 51.21875 Z M 36.085938 51.21875 " fill-opacity="1" fill-rule="nonzero"/><path fill="#efb745" d="M 32.460938 48.277344 L 31.046875 50.859375 C 30.875 51.171875 30.609375 51.324219 30.253906 51.328125 C 30.101562 51.328125 29.957031 51.289062 29.824219 51.21875 C 29.605469 51.097656 29.464844 50.917969 29.394531 50.679688 C 29.324219 50.441406 29.347656 50.214844 29.460938 49.996094 L 30.40625 48.277344 Z M 32.460938 48.277344 " fill-opacity="1" fill-rule="nonzero"/><path fill="#e29e30" d="M 36.058594 45.121094 C 35.835938 45.011719 35.605469 44.992188 35.371094 45.070312 C 35.136719 45.152344 34.960938 45.300781 34.851562 45.523438 L 33.476562 48.273438 L 35.488281 48.273438 L 36.460938 46.328125 C 36.570312 46.105469 36.589844 45.878906 36.511719 45.640625 C 36.429688 45.40625 36.28125 45.230469 36.058594 45.121094 Z M 36.058594 45.121094 " fill-opacity="1" fill-rule="nonzero"/><path fill="#e29e30" d="M 31.058594 45.523438 C 30.949219 45.300781 30.773438 45.152344 30.539062 45.074219 C 30.304688 44.996094 30.074219 45.011719 29.851562 45.125 C 29.632812 45.234375 29.480469 45.40625 29.402344 45.640625 C 29.324219 45.878906 29.339844 46.105469 29.449219 46.328125 L 30.421875 48.273438 L 32.433594 48.273438 Z M 31.058594 45.523438 " fill-opacity="1" fill-rule="nonzero"/><path fill="#5fddb9" d="M 29.355469 25.222656 C 28.53125 25.222656 27.707031 25.265625 26.886719 25.347656 C 26.0625 25.429688 25.25 25.550781 24.441406 25.710938 C 23.628906 25.875 22.832031 26.074219 22.042969 26.3125 C 21.25 26.554688 20.476562 26.832031 19.714844 27.148438 C 18.953125 27.464844 18.207031 27.816406 17.480469 28.207031 C 16.75 28.597656 16.042969 29.019531 15.359375 29.480469 C 14.671875 29.9375 14.011719 30.429688 13.371094 30.953125 C 12.734375 31.476562 12.125 32.03125 11.539062 32.613281 C 10.957031 33.195312 10.402344 33.808594 9.878906 34.445312 C 9.355469 35.082031 8.867188 35.746094 8.40625 36.429688 C 7.949219 37.117188 7.523438 37.824219 7.136719 38.550781 C 6.746094 39.277344 6.394531 40.023438 6.078125 40.785156 C 5.761719 41.546875 5.480469 42.324219 5.242188 43.113281 C 5 43.902344 4.800781 44.703125 4.640625 45.511719 C 4.476562 46.320312 4.355469 47.136719 4.273438 47.957031 C 4.191406 48.777344 4.152344 49.601562 4.148438 50.425781 C 4.148438 50.675781 4.238281 50.886719 4.414062 51.0625 C 4.589844 51.238281 4.800781 51.328125 5.050781 51.328125 L 14.953125 51.328125 C 15.199219 51.328125 15.414062 51.238281 15.589844 51.0625 C 15.765625 50.886719 15.851562 50.675781 15.851562 50.425781 C 15.851562 49.539062 15.941406 48.664062 16.113281 47.792969 C 16.289062 46.925781 16.542969 46.082031 16.882812 45.261719 C 17.222656 44.445312 17.640625 43.664062 18.132812 42.929688 C 18.625 42.191406 19.183594 41.511719 19.8125 40.882812 C 20.4375 40.257812 21.121094 39.695312 21.855469 39.203125 C 22.59375 38.710938 23.371094 38.296875 24.191406 37.957031 C 25.007812 37.617188 25.851562 37.359375 26.722656 37.1875 C 27.589844 37.011719 28.46875 36.925781 29.355469 36.925781 C 29.601562 36.925781 29.816406 36.835938 29.992188 36.660156 C 30.167969 36.484375 30.253906 36.273438 30.253906 36.023438 L 30.253906 26.121094 C 30.253906 25.875 30.167969 25.660156 29.992188 25.484375 C 29.816406 25.308594 29.601562 25.222656 29.355469 25.222656 Z M 29.355469 25.222656 " fill-opacity="1" fill-rule="nonzero"/><g clip-path="url(#688a54a630)"><path fill="#42c1a0" d="M 14.953125 37.824219 C 14.703125 37.824219 14.492188 37.738281 14.316406 37.5625 L 7.378906 30.625 L 1.449219 30.625 C 1.203125 30.625 0.988281 30.535156 0.8125 30.359375 C 0.636719 30.183594 0.550781 29.972656 0.550781 29.722656 C 0.550781 29.476562 0.636719 29.261719 0.8125 29.085938 C 0.988281 28.910156 1.203125 28.824219 1.449219 28.824219 L 7.75 28.824219 C 8 28.824219 8.210938 28.910156 8.386719 29.085938 L 15.589844 36.289062 C 15.71875 36.417969 15.800781 36.570312 15.835938 36.75 C 15.871094 36.925781 15.851562 37.101562 15.785156 37.269531 C 15.714844 37.4375 15.605469 37.570312 15.453125 37.671875 C 15.300781 37.773438 15.132812 37.824219 14.953125 37.824219 Z M 14.953125 37.824219 " fill-opacity="1" fill-rule="nonzero"/></g><g clip-path="url(#7275330312)"><path fill="#42c1a0" d="M 7.558594 27.023438 L 1.449219 27.023438 C 1.203125 27.023438 0.988281 26.933594 0.8125 26.757812 C 0.636719 26.582031 0.550781 26.371094 0.550781 26.121094 C 0.550781 25.875 0.636719 25.660156 0.8125 25.484375 C 0.988281 25.308594 1.203125 25.222656 1.449219 25.222656 L 7.558594 25.222656 C 7.804688 25.222656 8.015625 25.308594 8.191406 25.484375 C 8.367188 25.660156 8.457031 25.875 8.457031 26.121094 C 8.457031 26.371094 8.367188 26.582031 8.191406 26.757812 C 8.015625 26.933594 7.804688 27.023438 7.558594 27.023438 Z M 7.558594 27.023438 " fill-opacity="1" fill-rule="nonzero"/></g><g clip-path="url(#77e4e2eb62)"><path fill="#42c1a0" d="M 7.558594 23.421875 L 1.449219 23.421875 C 1.203125 23.421875 0.988281 23.335938 0.8125 23.160156 C 0.636719 22.984375 0.550781 22.769531 0.550781 22.523438 C 0.550781 22.273438 0.636719 22.0625 0.8125 21.886719 C 0.988281 21.710938 1.203125 21.621094 1.449219 21.621094 L 7.558594 21.621094 C 7.804688 21.621094 8.015625 21.710938 8.191406 21.886719 C 8.367188 22.0625 8.457031 22.273438 8.457031 22.523438 C 8.457031 22.769531 8.367188 22.984375 8.191406 23.160156 C 8.015625 23.335938 7.804688 23.421875 7.558594 23.421875 Z M 7.558594 23.421875 " fill-opacity="1" fill-rule="nonzero"/></g><g fill="#ffffff" fill-opacity="1"><g transform="translate(74.699039, 68.002946)"><g><path d="M 17.328125 0.15625 L 24.453125 0.046875 L 25.5 -0.40625 L 26.046875 -1.4375 L 26.046875 -6.46875 L 25.5 -7.46875 L 24.453125 -7.921875 L 23.3125 -7.828125 L 22.359375 -7.96875 L 19.828125 -8.015625 L 18.1875 -7.828125 L 17.1875 -7.921875 L 16.09375 -7.875 L 15.140625 -8.015625 L 14.046875 -7.921875 L 13 -8.421875 L 12.609375 -9.3125 L 12.609375 -12.453125 L 13.046875 -13.5 L 13.953125 -14.046875 L 15.4375 -14.09375 L 17.03125 -13.953125 L 18.921875 -14.046875 L 20.96875 -14 L 21.96875 -14.09375 L 23.109375 -14.046875 L 24.109375 -14.453125 L 24.453125 -15.4375 L 24.609375 -19.921875 L 24.109375 -21.3125 L 22.96875 -21.96875 L 20.03125 -21.96875 L 18.984375 -21.875 L 16.890625 -22.015625 L 14 -21.921875 L 12.953125 -22.359375 L 12.546875 -23.90625 L 12.546875 -25.453125 L 13 -26.40625 L 14.09375 -26.796875 L 15.046875 -26.75 L 15.984375 -26.953125 L 23.109375 -26.84375 L 24.0625 -26.90625 L 25.109375 -27.5 L 25.609375 -28.390625 L 25.546875 -29.390625 L 25.609375 -30.390625 L 25.5 -33.375 L 25.0625 -34.328125 L 24.0625 -34.71875 L 23.015625 -34.71875 L 22.109375 -34.921875 L 18.078125 -34.875 L 16.984375 -34.765625 L 15.984375 -34.875 L 15.140625 -34.8125 L 14.140625 -34.921875 L 10.0625 -34.8125 L 9.0625 -34.96875 L 8.125 -34.765625 L 7.21875 -34.875 L 6.234375 -34.765625 L 5.234375 -34.8125 L 4.1875 -34.421875 L 3.640625 -33.375 L 3.734375 -31.484375 L 3.59375 -29.4375 L 3.734375 -28.34375 L 3.640625 -23.46875 L 3.78125 -22.421875 L 3.6875 -21.46875 L 3.640625 -17.390625 L 3.78125 -16.484375 L 3.734375 -8.421875 L 3.640625 -7.46875 L 3.78125 -6.46875 L 3.640625 -3.03125 L 3.734375 -1.9375 L 4.140625 -0.59375 L 5.625 0.046875 L 9.21875 0.09375 L 10.3125 0 L 11.203125 0.046875 L 13.25 -0.09375 L 14.203125 0.09375 L 15.34375 0.15625 L 16.34375 0.046875 Z M 17.328125 0.15625 "/></g></g></g><g fill="#ffffff" fill-opacity="1"><g transform="translate(103.24155, 68.002946)"><g><path d="M 3.6875 -1.4375 L 4.140625 -0.546875 L 5.328125 0 L 10.8125 -0.09375 L 12.296875 -0.546875 L 12.859375 -1.34375 L 12.953125 -2.296875 L 12.90625 -3.34375 L 12.75 -4.390625 L 12.90625 -11.109375 L 12.703125 -14 L 13.15625 -14.6875 L 13.890625 -14.5 L 15.140625 -12.953125 L 17.9375 -10.3125 L 18.578125 -9.46875 L 20.21875 -8.125 L 21.375 -8.125 L 22.21875 -8.71875 L 26.40625 -12.953125 L 27.046875 -13.796875 L 27.75 -14.5 L 28.34375 -14.59375 L 28.734375 -14 L 28.890625 -13 L 28.734375 -12.046875 L 28.796875 -11.15625 L 28.734375 -10.15625 L 28.890625 -8.3125 L 28.734375 -1.4375 L 29.234375 -0.40625 L 30.328125 0 L 36.3125 0.046875 L 37.265625 -0.546875 L 37.8125 -1.59375 L 37.953125 -2.59375 L 37.765625 -8.5625 L 37.859375 -9.515625 L 37.765625 -11.453125 L 37.90625 -12.453125 L 37.859375 -13.453125 L 37.953125 -14.5 L 37.859375 -15.484375 L 38 -16.390625 L 37.859375 -30.484375 L 37.953125 -31.53125 L 37.859375 -32.375 L 37.90625 -33.421875 L 37.359375 -34.375 L 36.359375 -34.96875 L 34.875 -34.515625 L 33.625 -33.828125 L 32.484375 -32.421875 L 29.640625 -29.484375 L 29.1875 -28.734375 L 21.8125 -20.921875 L 20.71875 -20.578125 L 19.828125 -20.875 L 19.171875 -21.515625 L 18.578125 -22.359375 L 17.78125 -23.015625 L 17.1875 -23.8125 L 13.75 -27.34375 L 12.546875 -28.84375 L 11.703125 -29.59375 L 11.0625 -30.28125 L 10.515625 -31.03125 L 9.8125 -31.6875 L 9.265625 -32.375 L 8.171875 -33.53125 L 6.71875 -34.5625 L 5.28125 -34.96875 L 4.28125 -34.421875 L 3.734375 -33.421875 L 3.640625 -32.375 L 3.78125 -10.40625 L 3.59375 -9.46875 L 3.78125 -2.390625 Z M 3.6875 -1.4375 "/></g></g></g><g fill="#ffffff" fill-opacity="1"><g transform="translate(144.884728, 68.002946)"><g><path d="M 3.6875 -1.546875 L 4.078125 -0.5 L 5.125 -0.09375 L 6.125 0 L 9.0625 -0.046875 L 10.15625 0.046875 L 11.203125 0.046875 L 12.203125 -0.5 L 12.65625 -1.546875 L 12.703125 -3.53125 L 12.609375 -4.484375 L 12.75 -5.375 L 12.65625 -6.46875 L 12.65625 -7.515625 L 13 -8.375 L 14.34375 -8.859375 L 15.4375 -9.015625 L 16.9375 -8.859375 L 19.53125 -8.921875 L 21.5625 -9.3125 L 24.453125 -10.15625 L 26.15625 -11.203125 L 26.953125 -11.8125 L 28.4375 -13.25 L 30.03125 -15.640625 L 30.484375 -16.53125 L 30.828125 -17.4375 L 31.28125 -19.484375 L 31.375 -20.375 L 31.4375 -23.3125 L 30.53125 -27.203125 L 29.53125 -28.984375 L 28.890625 -29.84375 L 28.25 -30.53125 L 27.703125 -31.28125 L 26.84375 -32.03125 L 25.359375 -33.03125 L 23.5625 -33.96875 L 22.515625 -34.171875 L 21.515625 -34.5625 L 20.625 -34.765625 L 5.734375 -34.8125 L 4.390625 -34.375 L 3.890625 -33.421875 L 3.78125 -32.375 L 3.78125 -30.328125 L 3.640625 -29.4375 L 3.640625 -28.5 L 3.78125 -27.453125 L 3.78125 -22.359375 L 3.6875 -21.375 L 3.78125 -20.46875 L 3.6875 -19.375 L 3.828125 -17.328125 L 3.640625 -15.984375 L 3.78125 -14.5 L 3.6875 -13.546875 L 3.6875 -11.453125 L 3.828125 -10.515625 L 3.6875 -8.515625 L 3.828125 -5.375 L 3.59375 -4.390625 L 3.78125 -3.4375 L 3.640625 -2.484375 Z M 14.25 -16.984375 L 13.296875 -17.4375 L 12.703125 -18.4375 L 12.609375 -25.359375 L 13.203125 -26.453125 L 14.203125 -26.84375 L 15.4375 -26.953125 L 19.421875 -26.75 L 20.28125 -26.296875 L 21.015625 -25.75 L 21.8125 -25 L 22.3125 -24.15625 L 22.765625 -21.8125 L 22.21875 -19.53125 L 21.078125 -18.125 L 20.28125 -17.578125 L 19.484375 -17.140625 L 15.390625 -16.890625 Z M 14.25 -16.984375 "/></g></g></g><g fill="#ffffff" fill-opacity="1"><g transform="translate(177.6613, 68.002946)"><g><path d="M 3.734375 -1.4375 L 4.1875 -0.546875 L 5.78125 0.046875 L 23.40625 -0.046875 L 24.8125 -0.546875 L 25.359375 -1.4375 L 25.25 -2.546875 L 25.3125 -3.53125 L 25.40625 -4.4375 L 25.25 -5.53125 L 25.40625 -6.46875 L 24.75 -7.578125 L 23.953125 -8.0625 L 22.859375 -7.921875 L 14.09375 -8.015625 L 13.046875 -8.46875 L 12.75 -9.5625 L 12.796875 -11.40625 L 12.65625 -12.359375 L 12.703125 -13.453125 L 12.609375 -14.453125 L 12.703125 -15.484375 L 12.65625 -17.984375 L 12.796875 -19.375 L 12.65625 -20.46875 L 12.796875 -21.515625 L 12.65625 -29.296875 L 12.75 -30.390625 L 12.65625 -32.828125 L 12.15625 -34.328125 L 10.859375 -34.921875 L 5.671875 -34.8125 L 4.234375 -34.265625 L 3.59375 -32.921875 L 3.890625 -30.328125 L 3.78125 -29.390625 L 3.640625 -28.34375 L 3.78125 -27.34375 L 3.890625 -26.40625 L 3.734375 -25.3125 L 3.78125 -24.359375 L 3.6875 -23.359375 L 3.828125 -22.3125 L 3.6875 -21.421875 L 3.78125 -20.421875 L 3.640625 -19.484375 L 3.78125 -17.328125 L 3.640625 -16.390625 L 3.78125 -14.390625 L 3.640625 -13.40625 L 3.6875 -11.40625 L 3.78125 -10.515625 L 3.734375 -4.4375 L 3.828125 -3.4375 L 3.640625 -2.484375 Z M 3.734375 -1.4375 "/></g></g></g><g fill="#ffffff" fill-opacity="1"><g transform="translate(204.46038, 68.002946)"><g><path d="M 18.625 0.59375 L 21.421875 0.546875 L 24.40625 0.15625 L 28.140625 -1.09375 L 29.78125 -2 L 30.53125 -2.59375 L 31.484375 -3.03125 L 32.875 -4.234375 L 33.53125 -5.125 L 34.21875 -5.828125 L 36.40625 -9.171875 L 37.15625 -11.0625 L 37.5625 -12.953125 L 37.609375 -13.84375 L 37.859375 -14.84375 L 37.90625 -15.890625 L 38.109375 -17.328125 L 37.953125 -19.828125 L 37.609375 -21.875 L 36.359375 -25.609375 L 35.421875 -27.453125 L 34.328125 -28.9375 L 32.921875 -30.484375 L 31.484375 -31.734375 L 30.328125 -32.53125 L 28.84375 -33.171875 L 28.09375 -33.71875 L 24.265625 -34.921875 L 21.375 -35.421875 L 20.03125 -35.46875 L 14.75 -34.71875 L 11.015625 -33.328125 L 10.265625 -32.78125 L 9.359375 -32.328125 L 7.671875 -31.078125 L 5.234375 -28.25 L 3.6875 -25.609375 L 2.9375 -23.703125 L 2.09375 -19.875 L 1.9375 -15.84375 L 2.09375 -14.796875 L 2.34375 -13.890625 L 2.4375 -12.953125 L 2.890625 -11.0625 L 5.1875 -6.53125 L 5.78125 -5.921875 L 6.421875 -5.125 L 7.171875 -4.4375 L 7.71875 -3.78125 L 9.359375 -2.484375 L 13.25 -0.5 L 14.6875 0 L 15.796875 0.09375 L 17.578125 0.5 Z M 21.421875 -8.21875 L 18.6875 -8.21875 L 17.578125 -8.375 L 15.796875 -9.109375 L 15 -9.5625 L 13.65625 -10.65625 L 13 -11.359375 L 12.296875 -12.296875 L 12.046875 -13.09375 L 11.609375 -14 L 11.203125 -15.84375 L 11.203125 -18.875 L 11.453125 -19.78125 L 11.609375 -20.71875 L 12 -21.625 L 12.296875 -22.515625 L 13.5 -24.109375 L 15.984375 -25.796875 L 16.640625 -26.046875 L 18.578125 -26.546875 L 19.96875 -26.65625 L 22.359375 -26.34375 L 23.265625 -26.15625 L 24.15625 -25.75 L 25.703125 -24.65625 L 27.640625 -22.609375 L 28.25 -20.71875 L 28.6875 -19.78125 L 28.84375 -18.875 L 28.734375 -15.84375 L 28.34375 -14 L 28 -13.09375 L 27.453125 -12.203125 L 27.140625 -11.453125 L 26.453125 -10.65625 L 24.0625 -9.015625 L 23.15625 -8.765625 L 22.421875 -8.421875 Z M 21.421875 -8.21875 "/></g></g></g><g fill="#ffffff" fill-opacity="1"><g transform="translate(244.409937, 68.002946)"><g><path d="M 11.453125 -1.390625 L 12 -0.546875 L 12.953125 -0.046875 L 14.75 0.046875 L 15.734375 -0.046875 L 16.78125 0 L 18.1875 -0.046875 L 19.671875 -0.546875 L 20.171875 -1.546875 L 20.171875 -2.390625 L 20.078125 -3.4375 L 20.125 -4.390625 L 20.078125 -5.28125 L 20.328125 -8.3125 L 20.171875 -9.359375 L 20.328125 -12.25 L 20.125 -13.15625 L 20.375 -14.59375 L 22.109375 -17.640625 L 22.515625 -18.578125 L 23.0625 -19.421875 L 24.3125 -21.078125 L 30.03125 -30.53125 L 30.640625 -31.28125 L 30.984375 -32.171875 L 31.6875 -33.375 L 31.53125 -34.5625 L 30.578125 -34.96875 L 29.59375 -34.8125 L 27.640625 -34.96875 L 26.59375 -34.8125 L 24.703125 -34.8125 L 23.765625 -34.921875 L 22.515625 -34.421875 L 21.46875 -33.46875 L 20.625 -31.78125 L 19.96875 -30.828125 L 19.671875 -29.890625 L 18.53125 -28.25 L 17.78125 -26.453125 L 16.140625 -23.765625 L 15.4375 -23.65625 L 14.296875 -25.453125 L 13.84375 -26.34375 L 13.546875 -27.34375 L 11.0625 -31.734375 L 10.515625 -32.578125 L 10.109375 -33.578125 L 9.015625 -34.375 L 7.765625 -34.921875 L 1.203125 -34.8125 L 0.09375 -34.515625 L 0 -33.421875 L 0.5 -32.234375 L 5.875 -23.703125 L 6.28125 -22.859375 L 10.703125 -15.890625 L 11.109375 -14.59375 L 11.359375 -13.15625 L 11.3125 -9.21875 L 11.40625 -8.21875 L 11.453125 -7.265625 L 11.359375 -6.375 L 11.3125 -4.484375 L 11.5625 -2.4375 Z M 11.453125 -1.390625 "/></g></g></g><g fill="#ffffff" fill-opacity="1"><g transform="translate(276.090644, 68.002946)"><g><path d="M 3.59375 -1.4375 L 4.234375 -0.5 L 5.1875 0.046875 L 16.4375 -0.046875 L 17.328125 0.09375 L 20.375 -0.046875 L 23.40625 0.15625 L 24.359375 0.046875 L 25.40625 -0.453125 L 25.859375 -1.390625 L 25.953125 -2.34375 L 25.90625 -5.421875 L 26 -6.375 L 25.359375 -7.375 L 23.859375 -7.875 L 17.28125 -7.96875 L 16.34375 -7.828125 L 15.25 -7.921875 L 14.140625 -7.828125 L 13.09375 -8.421875 L 12.65625 -9.96875 L 12.703125 -12.40625 L 13.15625 -13.453125 L 14.046875 -14 L 15.984375 -14 L 16.984375 -14.09375 L 19.625 -13.953125 L 20.96875 -14.046875 L 22.015625 -13.953125 L 22.90625 -14 L 23.90625 -14.546875 L 24.40625 -15.484375 L 24.5 -19.421875 L 24.40625 -20.421875 L 23.953125 -21.375 L 23.109375 -21.921875 L 21.125 -21.96875 L 20.125 -21.875 L 19.078125 -21.875 L 17.9375 -21.96875 L 14 -21.921875 L 13.15625 -22.46875 L 12.546875 -23.359375 L 12.453125 -24.90625 L 12.953125 -26.34375 L 14.5 -26.796875 L 24.0625 -26.84375 L 25.109375 -27.390625 L 25.65625 -28.296875 L 25.546875 -30.328125 L 25.40625 -31.28125 L 25.453125 -32.375 L 25.609375 -33.328125 L 25.109375 -34.328125 L 24.0625 -34.765625 L 20.078125 -34.8125 L 19.171875 -34.71875 L 18.1875 -34.875 L 15.984375 -34.765625 L 15 -34.875 L 13.046875 -34.8125 L 12.15625 -34.921875 L 5.625 -34.765625 L 4.1875 -34.421875 L 3.6875 -33.328125 L 3.78125 -31.328125 L 3.59375 -29.890625 L 3.78125 -27.34375 L 3.6875 -26.296875 L 3.78125 -25.40625 L 3.78125 -16.484375 L 3.640625 -15.4375 L 3.78125 -13.5 L 3.6875 -11.5 L 3.828125 -10.453125 L 3.734375 -9.359375 L 3.78125 -8.421875 L 3.640625 -7.515625 L 3.734375 -6.375 L 3.734375 -5.375 L 3.828125 -3.4375 L 3.78125 -2.4375 Z M 3.59375 -1.4375 "/></g></g></g><g fill="#ffffff" fill-opacity="1"><g transform="translate(304.633167, 68.002946)"><g><path d="M 3.59375 -1.4375 L 4.234375 -0.5 L 5.1875 0.046875 L 16.4375 -0.046875 L 17.328125 0.09375 L 20.375 -0.046875 L 23.40625 0.15625 L 24.359375 0.046875 L 25.40625 -0.453125 L 25.859375 -1.390625 L 25.953125 -2.34375 L 25.90625 -5.421875 L 26 -6.375 L 25.359375 -7.375 L 23.859375 -7.875 L 17.28125 -7.96875 L 16.34375 -7.828125 L 15.25 -7.921875 L 14.140625 -7.828125 L 13.09375 -8.421875 L 12.65625 -9.96875 L 12.703125 -12.40625 L 13.15625 -13.453125 L 14.046875 -14 L 15.984375 -14 L 16.984375 -14.09375 L 19.625 -13.953125 L 20.96875 -14.046875 L 22.015625 -13.953125 L 22.90625 -14 L 23.90625 -14.546875 L 24.40625 -15.484375 L 24.5 -19.421875 L 24.40625 -20.421875 L 23.953125 -21.375 L 23.109375 -21.921875 L 21.125 -21.96875 L 20.125 -21.875 L 19.078125 -21.875 L 17.9375 -21.96875 L 14 -21.921875 L 13.15625 -22.46875 L 12.546875 -23.359375 L 12.453125 -24.90625 L 12.953125 -26.34375 L 14.5 -26.796875 L 24.0625 -26.84375 L 25.109375 -27.390625 L 25.65625 -28.296875 L 25.546875 -30.328125 L 25.40625 -31.28125 L 25.453125 -32.375 L 25.609375 -33.328125 L 25.109375 -34.328125 L 24.0625 -34.765625 L 20.078125 -34.8125 L 19.171875 -34.71875 L 18.1875 -34.875 L 15.984375 -34.765625 L 15 -34.875 L 13.046875 -34.8125 L 12.15625 -34.921875 L 5.625 -34.765625 L 4.1875 -34.421875 L 3.6875 -33.328125 L 3.78125 -31.328125 L 3.59375 -29.890625 L 3.78125 -27.34375 L 3.6875 -26.296875 L 3.78125 -25.40625 L 3.78125 -16.484375 L 3.640625 -15.4375 L 3.78125 -13.5 L 3.6875 -11.5 L 3.828125 -10.453125 L 3.734375 -9.359375 L 3.78125 -8.421875 L 3.640625 -7.515625 L 3.734375 -6.375 L 3.734375 -5.375 L 3.828125 -3.4375 L 3.78125 -2.4375 Z M 3.59375 -1.4375 "/></g></g></g><g fill="#ffffff" fill-opacity="1"><g transform="translate(333.17569, 68.002946)"><g/></g></g><g fill="#ffffff" fill-opacity="1"><g transform="translate(346.674843, 68.002946)"><g><path d="M 29.390625 0.09375 L 31.28125 -0.046875 L 32.234375 0.046875 L 33.765625 0 L 35.171875 -0.25 L 35.3125 -1.4375 L 34.96875 -2.59375 L 34.21875 -4.4375 L 32.875 -7.03125 L 32.171875 -8.859375 L 31.1875 -10.65625 L 29.296875 -15.1875 L 28.796875 -15.9375 L 28.296875 -16.890625 L 28 -17.984375 L 27.546875 -18.734375 L 27.25 -19.53125 L 26.203125 -21.375 L 25.859375 -22.421875 L 22.5625 -29.34375 L 22.265625 -30.328125 L 21.71875 -31.234375 L 21.421875 -32.125 L 20.46875 -33.875 L 19.625 -34.765625 L 17.984375 -35.265625 L 16.390625 -34.71875 L 15.484375 -33.875 L 15.046875 -33.03125 L 14.6875 -32.03125 L 14.25 -31.328125 L 12.25 -26.75 L 11.703125 -26 L 11.453125 -25 L 10.90625 -24.0625 L 10.609375 -23.15625 L 5.53125 -12.5 L 5.234375 -11.40625 L 4.734375 -10.65625 L 4.390625 -9.65625 L 3.484375 -8.0625 L 2.734375 -6.078125 L 2.1875 -5.375 L 1.9375 -4.484375 L 0.953125 -2.484375 L 0.640625 -1.5 L 0.890625 -0.25 L 1.890625 0.046875 L 3.828125 -0.046875 L 4.828125 0.046875 L 7.625 -0.046875 L 8.765625 -0.40625 L 9.71875 -1.296875 L 10.609375 -2.9375 L 11.5625 -3.890625 L 12.609375 -4.4375 L 13.546875 -4.28125 L 15.640625 -4.484375 L 16.53125 -4.328125 L 21.421875 -4.390625 L 22.3125 -4.28125 L 23.40625 -4.4375 L 24.5 -3.890625 L 25.453125 -3.09375 L 25.90625 -2.140625 L 26.203125 -1.25 L 27.203125 -0.5 L 28.34375 0 Z M 18.078125 -12.296875 L 17.078125 -12.5 L 15.9375 -12.40625 L 15.140625 -12.75 L 15.09375 -13.703125 L 17.4375 -19.078125 L 17.984375 -19.53125 L 18.6875 -19.125 L 21.015625 -13.65625 L 20.828125 -12.75 L 20.078125 -12.359375 Z M 18.078125 -12.296875 "/></g></g></g><g fill="#ffffff" fill-opacity="1"><g transform="translate(382.838669, 68.002946)"><g><path d="M 14.453125 0.40625 L 15.890625 0.546875 L 17.484375 0.5 L 22.359375 -0.453125 L 24.953125 -1.84375 L 26.546875 -2.9375 L 27.9375 -4.53125 L 28.9375 -6.125 L 29.34375 -7.03125 L 29.640625 -8.015625 L 29.78125 -8.921875 L 29.84375 -12 L 29.6875 -13 L 29.4375 -13.953125 L 28.4375 -15.796875 L 27.25 -17.328125 L 26.40625 -18.03125 L 23.765625 -19.234375 L 19.671875 -20.21875 L 14.640625 -20.875 L 12.546875 -21.625 L 11.8125 -22.015625 L 11.015625 -22.8125 L 10.953125 -24.15625 L 11.109375 -25.453125 L 11.65625 -26.15625 L 12.5 -26.796875 L 13.203125 -27.09375 L 14.09375 -27.296875 L 17.28125 -27.390625 L 18.375 -27 L 19.125 -26.40625 L 20.765625 -24.65625 L 22.3125 -24.15625 L 25.609375 -24.0625 L 26.5 -24.15625 L 27.453125 -24.0625 L 28.390625 -24.65625 L 28.84375 -25.609375 L 28.4375 -27.546875 L 27.640625 -29.34375 L 27 -30.140625 L 26.5 -30.9375 L 25.859375 -31.6875 L 22.671875 -33.875 L 19.921875 -34.8125 L 18.875 -35.015625 L 17.984375 -35.125 L 16.890625 -35.359375 L 14.09375 -35.3125 L 10.15625 -34.515625 L 9.265625 -34.171875 L 8.46875 -33.671875 L 7.671875 -33.375 L 6.671875 -32.78125 L 5.984375 -32.125 L 5.078125 -31.53125 L 4.53125 -30.6875 L 3.890625 -30.03125 L 3.53125 -29.140625 L 3.03125 -28.34375 L 2.34375 -25.453125 L 2.390625 -22.109375 L 2.734375 -20.71875 L 3.390625 -18.984375 L 4.625 -17.328125 L 6.03125 -16.046875 L 7.765625 -15 L 10.609375 -14.046875 L 12.40625 -13.65625 L 16.484375 -13.34375 L 17.390625 -13.203125 L 18.375 -13.15625 L 20.171875 -12.40625 L 20.875 -11.8125 L 21.125 -10.515625 L 20.828125 -9.21875 L 20.03125 -8.515625 L 19.234375 -8.0625 L 17.390625 -7.515625 L 15.984375 -7.46875 L 14.5 -7.578125 L 13.34375 -7.875 L 12.609375 -8.21875 L 11.703125 -8.765625 L 10.953125 -9.46875 L 10.21875 -10.453125 L 9.21875 -10.859375 L 5.421875 -10.953125 L 4.4375 -10.859375 L 3.4375 -10.90625 L 2.4375 -10.453125 L 2.09375 -9.421875 L 2.1875 -8.3125 L 2.390625 -7.421875 L 3.1875 -5.421875 L 4.4375 -3.890625 L 5.875 -2.4375 L 6.71875 -1.890625 L 10.3125 -0.25 L 11.40625 -0.09375 L 12.359375 0.25 Z M 14.453125 0.40625 "/></g></g></g><g fill="#ffffff" fill-opacity="1"><g transform="translate(414.618996, 68.002946)"><g><path d="M 14.453125 0.40625 L 15.890625 0.546875 L 17.484375 0.5 L 22.359375 -0.453125 L 24.953125 -1.84375 L 26.546875 -2.9375 L 27.9375 -4.53125 L 28.9375 -6.125 L 29.34375 -7.03125 L 29.640625 -8.015625 L 29.78125 -8.921875 L 29.84375 -12 L 29.6875 -13 L 29.4375 -13.953125 L 28.4375 -15.796875 L 27.25 -17.328125 L 26.40625 -18.03125 L 23.765625 -19.234375 L 19.671875 -20.21875 L 14.640625 -20.875 L 12.546875 -21.625 L 11.8125 -22.015625 L 11.015625 -22.8125 L 10.953125 -24.15625 L 11.109375 -25.453125 L 11.65625 -26.15625 L 12.5 -26.796875 L 13.203125 -27.09375 L 14.09375 -27.296875 L 17.28125 -27.390625 L 18.375 -27 L 19.125 -26.40625 L 20.765625 -24.65625 L 22.3125 -24.15625 L 25.609375 -24.0625 L 26.5 -24.15625 L 27.453125 -24.0625 L 28.390625 -24.65625 L 28.84375 -25.609375 L 28.4375 -27.546875 L 27.640625 -29.34375 L 27 -30.140625 L 26.5 -30.9375 L 25.859375 -31.6875 L 22.671875 -33.875 L 19.921875 -34.8125 L 18.875 -35.015625 L 17.984375 -35.125 L 16.890625 -35.359375 L 14.09375 -35.3125 L 10.15625 -34.515625 L 9.265625 -34.171875 L 8.46875 -33.671875 L 7.671875 -33.375 L 6.671875 -32.78125 L 5.984375 -32.125 L 5.078125 -31.53125 L 4.53125 -30.6875 L 3.890625 -30.03125 L 3.53125 -29.140625 L 3.03125 -28.34375 L 2.34375 -25.453125 L 2.390625 -22.109375 L 2.734375 -20.71875 L 3.390625 -18.984375 L 4.625 -17.328125 L 6.03125 -16.046875 L 7.765625 -15 L 10.609375 -14.046875 L 12.40625 -13.65625 L 16.484375 -13.34375 L 17.390625 -13.203125 L 18.375 -13.15625 L 20.171875 -12.40625 L 20.875 -11.8125 L 21.125 -10.515625 L 20.828125 -9.21875 L 20.03125 -8.515625 L 19.234375 -8.0625 L 17.390625 -7.515625 L 15.984375 -7.46875 L 14.5 -7.578125 L 13.34375 -7.875 L 12.609375 -8.21875 L 11.703125 -8.765625 L 10.953125 -9.46875 L 10.21875 -10.453125 L 9.21875 -10.859375 L 5.421875 -10.953125 L 4.4375 -10.859375 L 3.4375 -10.90625 L 2.4375 -10.453125 L 2.09375 -9.421875 L 2.1875 -8.3125 L 2.390625 -7.421875 L 3.1875 -5.421875 L 4.4375 -3.890625 L 5.875 -2.4375 L 6.71875 -1.890625 L 10.3125 -0.25 L 11.40625 -0.09375 L 12.359375 0.25 Z M 14.453125 0.40625 "/></g></g></g><g fill="#ffffff" fill-opacity="1"><g transform="translate(446.399323, 68.002946)"><g><path d="M 3.59375 -1.4375 L 4.234375 -0.5 L 5.1875 0.046875 L 16.4375 -0.046875 L 17.328125 0.09375 L 20.375 -0.046875 L 23.40625 0.15625 L 24.359375 0.046875 L 25.40625 -0.453125 L 25.859375 -1.390625 L 25.953125 -2.34375 L 25.90625 -5.421875 L 26 -6.375 L 25.359375 -7.375 L 23.859375 -7.875 L 17.28125 -7.96875 L 16.34375 -7.828125 L 15.25 -7.921875 L 14.140625 -7.828125 L 13.09375 -8.421875 L 12.65625 -9.96875 L 12.703125 -12.40625 L 13.15625 -13.453125 L 14.046875 -14 L 15.984375 -14 L 16.984375 -14.09375 L 19.625 -13.953125 L 20.96875 -14.046875 L 22.015625 -13.953125 L 22.90625 -14 L 23.90625 -14.546875 L 24.40625 -15.484375 L 24.5 -19.421875 L 24.40625 -20.421875 L 23.953125 -21.375 L 23.109375 -21.921875 L 21.125 -21.96875 L 20.125 -21.875 L 19.078125 -21.875 L 17.9375 -21.96875 L 14 -21.921875 L 13.15625 -22.46875 L 12.546875 -23.359375 L 12.453125 -24.90625 L 12.953125 -26.34375 L 14.5 -26.796875 L 24.0625 -26.84375 L 25.109375 -27.390625 L 25.65625 -28.296875 L 25.546875 -30.328125 L 25.40625 -31.28125 L 25.453125 -32.375 L 25.609375 -33.328125 L 25.109375 -34.328125 L 24.0625 -34.765625 L 20.078125 -34.8125 L 19.171875 -34.71875 L 18.1875 -34.875 L 15.984375 -34.765625 L 15 -34.875 L 13.046875 -34.8125 L 12.15625 -34.921875 L 5.625 -34.765625 L 4.1875 -34.421875 L 3.6875 -33.328125 L 3.78125 -31.328125 L 3.59375 -29.890625 L 3.78125 -27.34375 L 3.6875 -26.296875 L 3.78125 -25.40625 L 3.78125 -16.484375 L 3.640625 -15.4375 L 3.78125 -13.5 L 3.6875 -11.5 L 3.828125 -10.453125 L 3.734375 -9.359375 L 3.78125 -8.421875 L 3.640625 -7.515625 L 3.734375 -6.375 L 3.734375 -5.375 L 3.828125 -3.4375 L 3.78125 -2.4375 Z M 3.59375 -1.4375 "/></g></g></g><g fill="#ffffff" fill-opacity="1"><g transform="translate(474.941846, 68.002946)"><g><path d="M 9.5625 -1.546875 L 9.96875 -0.5 L 11.015625 0 L 11.953125 -0.09375 L 12.953125 0 L 13.890625 -0.09375 L 16.984375 -0.09375 L 17.984375 -0.5 L 18.375 -1.5 L 18.328125 -2.4375 L 18.4375 -3.59375 L 18.375 -5.578125 L 18.234375 -6.421875 L 18.375 -7.46875 L 18.484375 -10.515625 L 18.375 -11.40625 L 18.53125 -13.5 L 18.328125 -23.40625 L 18.484375 -24.40625 L 18.375 -25.5 L 18.78125 -26.40625 L 19.875 -26.84375 L 20.71875 -26.90625 L 21.71875 -26.84375 L 22.609375 -26.953125 L 25.359375 -26.90625 L 26.5 -27.34375 L 27 -28.34375 L 26.90625 -29.390625 L 27 -33.46875 L 26.5 -34.46875 L 25.5 -34.96875 L 24.3125 -34.875 L 23.515625 -34.96875 L 22.5625 -34.96875 L 21.46875 -34.8125 L 20.46875 -34.8125 L 19.484375 -34.921875 L 18.484375 -34.921875 L 17.328125 -34.765625 L 2.484375 -34.875 L 1.390625 -34.375 L 0.890625 -33.375 L 0.84375 -28.390625 L 1.390625 -27.296875 L 2.390625 -26.796875 L 3.6875 -26.953125 L 8.125 -26.90625 L 9.015625 -26.34375 L 9.515625 -25.40625 L 9.65625 -19.921875 L 9.515625 -18.375 L 9.609375 -17.4375 L 9.515625 -16.4375 L 9.515625 -14.453125 L 9.65625 -13 L 9.46875 -11.5 L 9.515625 -10.515625 L 9.46875 -9.46875 L 9.609375 -6.421875 L 9.515625 -5.421875 Z M 9.5625 -1.546875 "/></g></g></g></svg>