<svg xmlns="http://www.w3.org/2000/svg" xmlns:xlink="http://www.w3.org/1999/xlink" width="94" zoomAndPan="magnify" viewBox="0 0 70.5 102.75" height="137" preserveAspectRatio="xMidYMid meet" version="1.0"><defs><clipPath id="f28e7f9ff5"><path d="M 7 28 L 57.34375 28 L 57.34375 79.101562 L 7 79.101562 Z M 7 28 " clip-rule="nonzero"/></clipPath><clipPath id="45e147a1c2"><path d="M 7 53 L 33 53 L 33 79.101562 L 7 79.101562 Z M 7 53 " clip-rule="nonzero"/></clipPath><clipPath id="9e1e7157b3"><path d="M 31 28 L 57.34375 28 L 57.34375 55 L 31 55 Z M 31 28 " clip-rule="nonzero"/></clipPath><clipPath id="eff2a8aac4"><path d="M 0 21.757812 L 8 21.757812 L 8 24 L 0 24 Z M 0 21.757812 " clip-rule="nonzero"/></clipPath></defs><g clip-path="url(#f28e7f9ff5)"><path fill="#ff884d" d="M 32.253906 28.925781 C 32.007812 28.925781 31.796875 29.015625 31.621094 29.191406 C 31.445312 29.363281 31.359375 29.574219 31.359375 29.824219 L 31.359375 36.09375 C 31.359375 36.34375 31.445312 36.554688 31.621094 36.730469 C 31.796875 36.902344 32.007812 36.992188 32.253906 36.992188 C 32.8125 36.992188 33.371094 37.019531 33.925781 37.074219 C 34.480469 37.128906 35.03125 37.210938 35.578125 37.320312 C 36.125 37.425781 36.664062 37.5625 37.199219 37.722656 C 37.730469 37.886719 38.253906 38.074219 38.769531 38.289062 C 39.285156 38.5 39.789062 38.738281 40.28125 39 C 40.773438 39.265625 41.25 39.550781 41.714844 39.859375 C 42.175781 40.171875 42.625 40.5 43.054688 40.855469 C 43.488281 41.210938 43.898438 41.582031 44.292969 41.976562 C 44.6875 42.371094 45.0625 42.785156 45.414062 43.214844 C 45.769531 43.644531 46.101562 44.09375 46.410156 44.558594 C 46.71875 45.019531 47.007812 45.5 47.269531 45.992188 C 47.53125 46.480469 47.769531 46.984375 47.984375 47.5 C 48.195312 48.015625 48.382812 48.539062 48.546875 49.074219 C 48.707031 49.605469 48.84375 50.148438 48.953125 50.695312 C 49.0625 51.242188 49.144531 51.792969 49.199219 52.347656 C 49.253906 52.902344 49.28125 53.457031 49.28125 54.015625 C 49.28125 54.574219 49.253906 55.128906 49.199219 55.683594 C 49.144531 56.238281 49.0625 56.789062 48.953125 57.335938 C 48.84375 57.882812 48.707031 58.421875 48.546875 58.957031 C 48.382812 59.492188 48.195312 60.015625 47.984375 60.53125 C 47.769531 61.046875 47.53125 61.546875 47.269531 62.039062 C 47.007812 62.53125 46.71875 63.007812 46.410156 63.472656 C 46.101562 63.9375 45.769531 64.382812 45.414062 64.816406 C 45.0625 65.246094 44.6875 65.660156 44.292969 66.054688 C 43.898438 66.445312 43.488281 66.820312 43.054688 67.175781 C 42.625 67.527344 42.175781 67.859375 41.714844 68.171875 C 41.25 68.480469 40.773438 68.765625 40.28125 69.027344 C 39.789062 69.292969 39.285156 69.53125 38.769531 69.742188 C 38.253906 69.957031 37.730469 70.144531 37.199219 70.304688 C 36.664062 70.46875 36.125 70.601562 35.578125 70.710938 C 35.03125 70.820312 34.480469 70.902344 33.925781 70.957031 C 33.371094 71.011719 32.8125 71.039062 32.253906 71.039062 C 31.699219 71.039062 31.140625 71.011719 30.585938 70.957031 C 30.03125 70.902344 29.480469 70.820312 28.933594 70.710938 C 28.386719 70.601562 27.847656 70.46875 27.3125 70.304688 C 26.78125 70.144531 26.257812 69.957031 25.742188 69.742188 C 25.226562 69.53125 24.722656 69.292969 24.230469 69.027344 C 23.738281 68.765625 23.261719 68.480469 22.796875 68.171875 C 22.335938 67.859375 21.886719 67.527344 21.457031 67.175781 C 21.023438 66.820312 20.613281 66.445312 20.21875 66.054688 C 19.824219 65.660156 19.449219 65.246094 19.097656 64.816406 C 18.742188 64.382812 18.410156 63.9375 18.101562 63.472656 C 17.792969 63.007812 17.503906 62.53125 17.242188 62.039062 C 16.980469 61.546875 16.742188 61.046875 16.527344 60.53125 C 16.3125 60.015625 16.125 59.492188 15.964844 58.957031 C 15.804688 58.421875 15.667969 57.882812 15.558594 57.335938 C 15.449219 56.789062 15.367188 56.238281 15.3125 55.683594 C 15.257812 55.128906 15.230469 54.574219 15.230469 54.015625 C 15.230469 53.769531 15.144531 53.554688 14.96875 53.382812 C 14.792969 53.207031 14.582031 53.117188 14.335938 53.121094 L 8.0625 53.121094 C 7.816406 53.117188 7.605469 53.207031 7.429688 53.382812 C 7.253906 53.554688 7.167969 53.769531 7.167969 54.015625 C 7.167969 54.835938 7.207031 55.65625 7.289062 56.472656 C 7.371094 57.292969 7.488281 58.105469 7.648438 58.910156 C 7.808594 59.714844 8.007812 60.511719 8.25 61.296875 C 8.488281 62.085938 8.761719 62.855469 9.078125 63.617188 C 9.390625 64.375 9.742188 65.117188 10.128906 65.839844 C 10.515625 66.566406 10.941406 67.269531 11.394531 67.953125 C 11.851562 68.636719 12.339844 69.296875 12.863281 69.929688 C 13.382812 70.566406 13.933594 71.175781 14.515625 71.753906 C 15.097656 72.335938 15.703125 72.886719 16.339844 73.410156 C 16.976562 73.929688 17.632812 74.417969 18.316406 74.875 C 19 75.332031 19.703125 75.753906 20.429688 76.140625 C 21.152344 76.527344 21.894531 76.878906 22.65625 77.191406 C 23.414062 77.507812 24.1875 77.785156 24.972656 78.023438 C 25.757812 78.261719 26.554688 78.460938 27.359375 78.621094 C 28.167969 78.78125 28.980469 78.902344 29.796875 78.980469 C 30.613281 79.0625 31.433594 79.101562 32.253906 79.101562 C 33.078125 79.101562 33.898438 79.0625 34.714844 78.980469 C 35.53125 78.902344 36.34375 78.78125 37.148438 78.621094 C 37.957031 78.460938 38.75 78.261719 39.539062 78.023438 C 40.324219 77.785156 41.097656 77.507812 41.855469 77.191406 C 42.617188 76.878906 43.355469 76.527344 44.082031 76.140625 C 44.804688 75.753906 45.511719 75.332031 46.195312 74.875 C 46.875 74.417969 47.535156 73.929688 48.171875 73.410156 C 48.804688 72.886719 49.414062 72.335938 49.996094 71.753906 C 50.578125 71.175781 51.128906 70.566406 51.648438 69.929688 C 52.167969 69.296875 52.660156 68.636719 53.117188 67.953125 C 53.570312 67.269531 53.992188 66.566406 54.382812 65.839844 C 54.769531 65.117188 55.121094 64.375 55.433594 63.617188 C 55.75 62.855469 56.023438 62.085938 56.261719 61.296875 C 56.5 60.511719 56.699219 59.714844 56.859375 58.910156 C 57.023438 58.105469 57.140625 57.292969 57.222656 56.472656 C 57.304688 55.65625 57.34375 54.835938 57.34375 54.015625 C 57.34375 53.195312 57.304688 52.375 57.222656 51.554688 C 57.140625 50.738281 57.023438 49.925781 56.859375 49.121094 C 56.699219 48.316406 56.5 47.519531 56.261719 46.734375 C 56.023438 45.945312 55.75 45.171875 55.433594 44.414062 C 55.121094 43.65625 54.769531 42.914062 54.382812 42.1875 C 53.992188 41.464844 53.570312 40.761719 53.117188 40.078125 C 52.660156 39.394531 52.167969 38.734375 51.648438 38.101562 C 51.128906 37.464844 50.578125 36.855469 49.996094 36.277344 C 49.414062 35.695312 48.804688 35.144531 48.171875 34.621094 C 47.535156 34.101562 46.875 33.613281 46.195312 33.15625 C 45.511719 32.699219 44.804688 32.277344 44.082031 31.890625 C 43.355469 31.503906 42.617188 31.152344 41.855469 30.835938 C 41.097656 30.523438 40.324219 30.246094 39.539062 30.007812 C 38.75 29.769531 37.957031 29.570312 37.148438 29.410156 C 36.34375 29.25 35.53125 29.128906 34.714844 29.046875 C 33.898438 28.96875 33.078125 28.925781 32.253906 28.925781 Z M 32.253906 28.925781 " fill-opacity="1" fill-rule="nonzero"/></g><g clip-path="url(#45e147a1c2)"><path fill="#7188ea" d="M 32.253906 71.039062 L 32.253906 79.101562 C 31.433594 79.101562 30.613281 79.0625 29.796875 78.980469 C 28.980469 78.898438 28.167969 78.777344 27.363281 78.617188 C 26.558594 78.457031 25.761719 78.253906 24.976562 78.015625 C 24.191406 77.777344 23.417969 77.5 22.660156 77.1875 C 21.902344 76.871094 21.160156 76.519531 20.433594 76.132812 C 19.710938 75.746094 19.007812 75.324219 18.324219 74.867188 C 17.640625 74.410156 16.984375 73.921875 16.347656 73.398438 C 15.710938 72.878906 15.105469 72.328125 14.523438 71.746094 C 13.941406 71.164062 13.390625 70.558594 12.871094 69.921875 C 12.351562 69.289062 11.859375 68.628906 11.40625 67.945312 C 10.949219 67.265625 10.527344 66.558594 10.136719 65.835938 C 9.75 65.113281 9.398438 64.371094 9.085938 63.613281 C 8.769531 62.851562 8.492188 62.082031 8.253906 61.292969 C 8.015625 60.507812 7.816406 59.714844 7.65625 58.90625 C 7.492188 58.101562 7.371094 57.289062 7.292969 56.472656 C 7.210938 55.65625 7.167969 54.835938 7.167969 54.015625 C 7.167969 53.769531 7.257812 53.558594 7.429688 53.382812 C 7.605469 53.207031 7.816406 53.121094 8.0625 53.121094 L 14.335938 53.121094 C 14.582031 53.121094 14.792969 53.207031 14.96875 53.382812 C 15.144531 53.558594 15.230469 53.769531 15.230469 54.015625 C 15.230469 54.574219 15.261719 55.128906 15.316406 55.683594 C 15.371094 56.238281 15.453125 56.789062 15.5625 57.335938 C 15.671875 57.882812 15.804688 58.421875 15.96875 58.957031 C 16.128906 59.488281 16.316406 60.011719 16.53125 60.527344 C 16.746094 61.042969 16.984375 61.546875 17.246094 62.039062 C 17.507812 62.527344 17.796875 63.007812 18.105469 63.46875 C 18.414062 63.933594 18.746094 64.378906 19.101562 64.8125 C 19.453125 65.242188 19.828125 65.652344 20.222656 66.046875 C 20.617188 66.441406 21.027344 66.816406 21.460938 67.171875 C 21.890625 67.523438 22.339844 67.855469 22.800781 68.164062 C 23.265625 68.476562 23.742188 68.761719 24.234375 69.023438 C 24.726562 69.289062 25.226562 69.527344 25.742188 69.738281 C 26.257812 69.953125 26.78125 70.140625 27.316406 70.300781 C 27.847656 70.464844 28.390625 70.601562 28.933594 70.710938 C 29.480469 70.820312 30.03125 70.902344 30.585938 70.957031 C 31.140625 71.011719 31.699219 71.039062 32.253906 71.039062 Z M 32.253906 71.039062 " fill-opacity="1" fill-rule="nonzero"/></g><g clip-path="url(#9e1e7157b3)"><path fill="#f95858" d="M 57.34375 54.015625 L 49.28125 54.015625 C 49.277344 53.457031 49.25 52.902344 49.195312 52.347656 C 49.140625 51.792969 49.058594 51.242188 48.949219 50.695312 C 48.839844 50.148438 48.703125 49.609375 48.542969 49.074219 C 48.378906 48.542969 48.191406 48.019531 47.980469 47.503906 C 47.765625 46.988281 47.527344 46.484375 47.265625 45.992188 C 47 45.5 46.714844 45.023438 46.40625 44.5625 C 46.097656 44.097656 45.765625 43.652344 45.410156 43.21875 C 45.058594 42.789062 44.683594 42.375 44.289062 41.980469 C 43.894531 41.589844 43.480469 41.214844 43.050781 40.859375 C 42.621094 40.507812 42.171875 40.175781 41.710938 39.863281 C 41.246094 39.554688 40.769531 39.269531 40.277344 39.007812 C 39.785156 38.742188 39.28125 38.503906 38.769531 38.292969 C 38.253906 38.078125 37.730469 37.890625 37.195312 37.726562 C 36.664062 37.566406 36.121094 37.429688 35.574219 37.320312 C 35.027344 37.210938 34.476562 37.128906 33.921875 37.074219 C 33.367188 37.019531 32.8125 36.992188 32.253906 36.992188 C 32.007812 36.992188 31.796875 36.902344 31.621094 36.726562 C 31.449219 36.554688 31.359375 36.34375 31.359375 36.09375 L 31.359375 29.824219 C 31.359375 29.578125 31.449219 29.367188 31.621094 29.191406 C 31.796875 29.015625 32.007812 28.929688 32.253906 28.925781 C 33.078125 28.929688 33.894531 28.96875 34.714844 29.050781 C 35.53125 29.132812 36.34375 29.253906 37.148438 29.414062 C 37.953125 29.574219 38.75 29.773438 39.535156 30.015625 C 40.320312 30.253906 41.09375 30.53125 41.851562 30.84375 C 42.609375 31.160156 43.351562 31.511719 44.078125 31.898438 C 44.800781 32.285156 45.503906 32.707031 46.1875 33.164062 C 46.871094 33.621094 47.527344 34.109375 48.164062 34.628906 C 48.796875 35.152344 49.40625 35.703125 49.988281 36.285156 C 50.566406 36.863281 51.117188 37.472656 51.640625 38.105469 C 52.160156 38.742188 52.648438 39.402344 53.105469 40.082031 C 53.5625 40.765625 53.984375 41.46875 54.371094 42.195312 C 54.761719 42.917969 55.113281 43.660156 55.425781 44.417969 C 55.742188 45.175781 56.019531 45.949219 56.257812 46.734375 C 56.496094 47.523438 56.695312 48.316406 56.855469 49.121094 C 57.019531 49.929688 57.140625 50.738281 57.21875 51.558594 C 57.300781 52.375 57.34375 53.195312 57.34375 54.015625 Z M 57.34375 54.015625 " fill-opacity="1" fill-rule="nonzero"/></g><path fill="#fcd163" d="M 41.753906 55.992188 C 41.570312 54.441406 41.074219 52.992188 40.273438 51.648438 C 39.46875 50.304688 38.425781 49.183594 37.144531 48.289062 C 38.234375 46.542969 40.265625 42.703125 38.925781 40.15625 C 38.8125 39.945312 38.644531 39.800781 38.414062 39.726562 C 38.1875 39.648438 37.964844 39.664062 37.746094 39.765625 C 34.152344 41.472656 32.882812 40.617188 32.875 40.617188 C 32.765625 40.511719 32.636719 40.441406 32.488281 40.402344 C 32.339844 40.363281 32.195312 40.359375 32.046875 40.394531 C 31.898438 40.429688 31.765625 40.5 31.652344 40.601562 C 31.542969 40.703125 31.460938 40.828125 31.410156 40.972656 L 31.246094 41.4375 L 30.65625 40.605469 C 30.535156 40.4375 30.375 40.324219 30.175781 40.265625 C 29.976562 40.207031 29.78125 40.21875 29.589844 40.296875 C 29.15625 40.480469 28.707031 40.539062 28.242188 40.472656 C 27.777344 40.40625 27.359375 40.222656 26.996094 39.925781 C 26.78125 39.71875 26.527344 39.640625 26.234375 39.691406 C 25.941406 39.738281 25.726562 39.894531 25.585938 40.15625 C 24.246094 42.703125 26.277344 46.542969 27.367188 48.289062 C 26.085938 49.183594 25.042969 50.304688 24.238281 51.648438 C 23.433594 52.992188 22.941406 54.441406 22.757812 55.992188 C 22.265625 58.976562 22.007812 62.3125 23.828125 64.421875 C 25.070312 65.859375 27.105469 66.558594 30.03125 66.558594 C 30.132812 66.558594 30.234375 66.558594 30.339844 66.554688 L 34.15625 66.554688 C 37.277344 66.605469 39.398438 65.90625 40.683594 64.421875 C 42.5 62.3125 42.246094 58.976562 41.753906 55.992188 Z M 41.753906 55.992188 " fill-opacity="1" fill-rule="nonzero"/><path fill="#efb745" d="M 33.152344 56.765625 L 33.152344 54.972656 C 33.820312 55.089844 34.03125 55.339844 34.046875 55.453125 C 34.050781 55.699219 34.140625 55.910156 34.320312 56.078125 C 34.5 56.25 34.710938 56.328125 34.960938 56.320312 C 35.207031 56.316406 35.417969 56.222656 35.589844 56.046875 C 35.761719 55.867188 35.84375 55.65625 35.839844 55.40625 C 35.835938 55.191406 35.714844 53.453125 33.152344 53.164062 L 33.152344 53.121094 C 33.152344 52.871094 33.0625 52.660156 32.890625 52.484375 C 32.714844 52.3125 32.503906 52.222656 32.253906 52.222656 C 32.007812 52.222656 31.796875 52.3125 31.621094 52.484375 C 31.445312 52.660156 31.359375 52.871094 31.359375 53.121094 L 31.359375 53.183594 C 29.59375 53.457031 28.671875 54.644531 28.671875 55.808594 C 28.695312 56.152344 28.78125 56.484375 28.929688 56.796875 C 29.074219 57.109375 29.269531 57.386719 29.519531 57.628906 C 29.765625 57.871094 30.046875 58.0625 30.367188 58.199219 C 30.683594 58.335938 31.015625 58.414062 31.359375 58.433594 L 31.359375 60.226562 C 30.679688 60.113281 30.476562 59.855469 30.464844 59.757812 C 30.453125 59.511719 30.363281 59.304688 30.183594 59.132812 C 30.007812 58.964844 29.796875 58.878906 29.550781 58.878906 C 29.304688 58.882812 29.09375 58.972656 28.921875 59.152344 C 28.75 59.328125 28.667969 59.542969 28.671875 59.789062 C 28.675781 60.007812 28.796875 61.726562 31.359375 62.027344 L 31.359375 62.078125 C 31.359375 62.328125 31.445312 62.539062 31.621094 62.710938 C 31.796875 62.886719 32.007812 62.976562 32.253906 62.976562 C 32.503906 62.976562 32.714844 62.886719 32.890625 62.710938 C 33.0625 62.539062 33.152344 62.328125 33.152344 62.078125 L 33.152344 62.015625 C 34.917969 61.738281 35.839844 60.554688 35.839844 59.390625 C 35.8125 59.046875 35.730469 58.714844 35.582031 58.402344 C 35.4375 58.089844 35.238281 57.8125 34.992188 57.570312 C 34.746094 57.328125 34.460938 57.136719 34.144531 57 C 33.828125 56.859375 33.496094 56.78125 33.152344 56.765625 Z M 30.464844 55.808594 C 30.464844 55.488281 30.769531 55.164062 31.359375 55.007812 L 31.359375 56.605469 C 30.769531 56.453125 30.464844 56.128906 30.464844 55.808594 Z M 33.152344 60.191406 L 33.152344 58.589844 C 33.742188 58.746094 34.046875 59.070312 34.046875 59.390625 C 34.046875 59.710938 33.742188 60.035156 33.152344 60.191406 Z M 33.152344 60.191406 " fill-opacity="1" fill-rule="nonzero"/><path fill="#efb745" d="M 38.925781 40.15625 C 38.8125 39.945312 38.644531 39.800781 38.414062 39.726562 C 38.1875 39.648438 37.964844 39.664062 37.746094 39.765625 C 34.152344 41.472656 32.882812 40.617188 32.875 40.617188 C 32.765625 40.511719 32.636719 40.441406 32.488281 40.402344 C 32.339844 40.363281 32.195312 40.359375 32.046875 40.394531 C 31.898438 40.429688 31.765625 40.5 31.652344 40.601562 C 31.542969 40.703125 31.460938 40.828125 31.410156 40.972656 L 31.246094 41.4375 L 30.65625 40.605469 C 30.535156 40.4375 30.375 40.324219 30.175781 40.265625 C 29.976562 40.207031 29.78125 40.21875 29.589844 40.296875 C 29.15625 40.480469 28.707031 40.539062 28.242188 40.472656 C 27.777344 40.40625 27.359375 40.222656 26.996094 39.925781 C 26.78125 39.71875 26.527344 39.640625 26.234375 39.691406 C 25.941406 39.738281 25.726562 39.894531 25.585938 40.15625 C 24.246094 42.703125 26.277344 46.542969 27.367188 48.289062 L 37.144531 48.289062 C 38.234375 46.542969 40.265625 42.703125 38.925781 40.15625 Z M 38.925781 40.15625 " fill-opacity="1" fill-rule="nonzero"/><path fill="#efb745" d="M 35.375 51.21875 C 35.238281 51.289062 35.097656 51.328125 34.945312 51.328125 C 34.589844 51.328125 34.328125 51.171875 34.15625 50.859375 L 32.75 48.289062 L 34.792969 48.289062 L 35.730469 50 C 35.847656 50.21875 35.871094 50.445312 35.800781 50.683594 C 35.730469 50.921875 35.589844 51.097656 35.375 51.21875 Z M 35.375 51.21875 " fill-opacity="1" fill-rule="nonzero"/><path fill="#efb745" d="M 31.761719 48.289062 L 30.355469 50.859375 C 30.183594 51.171875 29.921875 51.328125 29.566406 51.328125 C 29.414062 51.328125 29.273438 51.289062 29.136719 51.21875 C 28.921875 51.097656 28.78125 50.921875 28.710938 50.683594 C 28.640625 50.445312 28.664062 50.21875 28.777344 50 L 29.71875 48.289062 Z M 31.761719 48.289062 " fill-opacity="1" fill-rule="nonzero"/><path fill="#e29e30" d="M 35.34375 45.148438 C 35.121094 45.039062 34.894531 45.023438 34.660156 45.101562 C 34.425781 45.179688 34.253906 45.328125 34.140625 45.550781 L 32.773438 48.289062 L 34.777344 48.289062 L 35.746094 46.351562 C 35.855469 46.128906 35.871094 45.902344 35.792969 45.667969 C 35.714844 45.433594 35.566406 45.261719 35.34375 45.148438 Z M 35.34375 45.148438 " fill-opacity="1" fill-rule="nonzero"/><path fill="#e29e30" d="M 30.367188 45.550781 C 30.257812 45.328125 30.085938 45.179688 29.851562 45.101562 C 29.617188 45.027344 29.390625 45.042969 29.167969 45.152344 C 28.945312 45.261719 28.796875 45.433594 28.71875 45.667969 C 28.640625 45.902344 28.65625 46.132812 28.765625 46.351562 L 29.734375 48.289062 L 31.738281 48.289062 Z M 30.367188 45.550781 " fill-opacity="1" fill-rule="nonzero"/><path fill="#5fddb9" d="M 28.671875 25.34375 C 27.851562 25.34375 27.03125 25.386719 26.214844 25.46875 C 25.394531 25.546875 24.585938 25.667969 23.777344 25.832031 C 22.972656 25.992188 22.179688 26.191406 21.390625 26.429688 C 20.605469 26.667969 19.835938 26.945312 19.074219 27.261719 C 18.316406 27.574219 17.574219 27.925781 16.851562 28.3125 C 16.125 28.703125 15.421875 29.125 14.742188 29.582031 C 14.058594 30.035156 13.398438 30.527344 12.765625 31.046875 C 12.128906 31.566406 11.519531 32.117188 10.941406 32.699219 C 10.359375 33.28125 9.808594 33.886719 9.289062 34.523438 C 8.765625 35.160156 8.277344 35.816406 7.820312 36.5 C 7.363281 37.183594 6.941406 37.886719 6.554688 38.609375 C 6.167969 39.335938 5.816406 40.078125 5.5 40.835938 C 5.1875 41.59375 4.910156 42.367188 4.671875 43.152344 C 4.429688 43.9375 4.230469 44.734375 4.070312 45.539062 C 3.910156 46.34375 3.789062 47.15625 3.707031 47.972656 C 3.625 48.789062 3.585938 49.609375 3.582031 50.429688 C 3.582031 50.679688 3.671875 50.890625 3.847656 51.066406 C 4.019531 51.238281 4.234375 51.328125 4.480469 51.328125 L 14.335938 51.328125 C 14.582031 51.328125 14.792969 51.238281 14.96875 51.066406 C 15.144531 50.890625 15.230469 50.679688 15.230469 50.429688 C 15.234375 49.550781 15.320312 48.675781 15.492188 47.808594 C 15.664062 46.945312 15.921875 46.105469 16.257812 45.289062 C 16.597656 44.476562 17.011719 43.703125 17.5 42.96875 C 17.992188 42.234375 18.546875 41.554688 19.171875 40.933594 C 19.796875 40.308594 20.476562 39.75 21.207031 39.261719 C 21.941406 38.769531 22.714844 38.355469 23.53125 38.019531 C 24.34375 37.679688 25.1875 37.425781 26.050781 37.253906 C 26.914062 37.078125 27.789062 36.992188 28.671875 36.992188 C 28.917969 36.992188 29.128906 36.902344 29.304688 36.730469 C 29.480469 36.554688 29.566406 36.34375 29.566406 36.09375 L 29.566406 26.238281 C 29.566406 25.992188 29.480469 25.78125 29.304688 25.605469 C 29.128906 25.429688 28.917969 25.34375 28.671875 25.34375 Z M 28.671875 25.34375 " fill-opacity="1" fill-rule="nonzero"/><path fill="#42c1a0" d="M 14.335938 37.886719 C 14.089844 37.886719 13.878906 37.800781 13.703125 37.625 L 6.796875 30.71875 L 0.894531 30.71875 C 0.648438 30.71875 0.4375 30.632812 0.261719 30.457031 C 0.0859375 30.28125 0 30.070312 0 29.824219 C 0 29.574219 0.0859375 29.363281 0.261719 29.191406 C 0.4375 29.015625 0.648438 28.925781 0.894531 28.925781 L 7.167969 28.925781 C 7.414062 28.925781 7.625 29.015625 7.800781 29.191406 L 14.96875 36.359375 C 15.097656 36.484375 15.179688 36.640625 15.214844 36.816406 C 15.25 36.996094 15.234375 37.167969 15.164062 37.335938 C 15.09375 37.5 14.984375 37.636719 14.832031 37.738281 C 14.683594 37.835938 14.515625 37.886719 14.335938 37.886719 Z M 14.335938 37.886719 " fill-opacity="1" fill-rule="nonzero"/><path fill="#42c1a0" d="M 6.972656 27.136719 L 0.894531 27.136719 C 0.648438 27.136719 0.4375 27.046875 0.261719 26.875 C 0.0859375 26.699219 0 26.488281 0 26.238281 C 0 25.992188 0.0859375 25.78125 0.261719 25.605469 C 0.4375 25.429688 0.648438 25.34375 0.894531 25.34375 L 6.972656 25.34375 C 7.222656 25.34375 7.433594 25.429688 7.609375 25.605469 C 7.78125 25.78125 7.871094 25.992188 7.871094 26.238281 C 7.871094 26.488281 7.78125 26.699219 7.609375 26.875 C 7.433594 27.046875 7.222656 27.136719 6.972656 27.136719 Z M 6.972656 27.136719 " fill-opacity="1" fill-rule="nonzero"/><g clip-path="url(#eff2a8aac4)"><path fill="#42c1a0" d="M 6.972656 23.550781 L 0.894531 23.550781 C 0.648438 23.550781 0.4375 23.464844 0.261719 23.289062 C 0.0859375 23.113281 0 22.902344 0 22.65625 C 0 22.40625 0.0859375 22.195312 0.261719 22.023438 C 0.4375 21.847656 0.648438 21.757812 0.894531 21.757812 L 6.972656 21.757812 C 7.222656 21.757812 7.433594 21.847656 7.609375 22.023438 C 7.78125 22.195312 7.871094 22.40625 7.871094 22.65625 C 7.871094 22.902344 7.78125 23.113281 7.609375 23.289062 C 7.433594 23.464844 7.222656 23.550781 6.972656 23.550781 Z M 6.972656 23.550781 " fill-opacity="1" fill-rule="nonzero"/></g></svg>